<?xml version="1.0" encoding="UTF-8" standalone="no"?>
<!-- Created with Inkscape (http://www.inkscape.org/) -->

<svg
   version="1.1"
   id="svg1"
   width="499.276"
   height="320.87723"
   viewBox="0 0 499.276 320.87723"
   xmlns="http://www.w3.org/2000/svg"
   xmlns:svg="http://www.w3.org/2000/svg">
  <defs
     id="defs1" />
  <g
     id="g1"
     transform="translate(-0.30912808,-96.119581)">
    <path
       style="fill:#000000"
       d="m 21.795349,416.40081 c -1.693639,-0.70086 -2.368823,-1.2537 -2.983995,-2.44331 -0.700906,-1.35541 -0.599695,-5.4293 0.215803,-8.68638 0.381603,-1.52412 0.89204,-3.59612 1.134304,-4.60445 0.500961,-2.08507 1.572386,-6.06856 2.555182,-9.5 0.894537,-3.12329 2.256741,-8.2419 2.794342,-10.5 0.240061,-1.00834 0.683024,-2.73334 0.984362,-3.83334 0.301337,-1.1 0.6832,-2.6 0.848583,-3.33333 0.941254,-4.17366 1.392436,-6.14303 1.680064,-7.33333 0.57051,-2.36097 1.337291,-6.25491 1.837888,-9.33334 0.268314,-1.65 0.635906,-3.825 0.816872,-4.83333 0.6993,-3.89647 1.330653,-8.65681 1.635738,-12.33333 0.174954,-2.10834 0.475259,-5.48334 0.667345,-7.5 1.03241,-10.83905 1.329156,-27.2771 0.696544,-38.58461 -0.17689,-3.1618 -0.486482,-9.87373 -0.687981,-14.91539 -0.201499,-5.04167 -0.441878,-9.42917 -0.534177,-9.75 -0.297108,-1.03277 -0.789308,-0.62142 -0.797705,0.66666 -0.0045,0.6875 -0.151928,1.87278 -0.327659,2.63394 -0.175731,0.76117 -0.468987,2.56117 -0.65168,4 -0.526843,4.14925 -1.474774,9.30597 -2.502962,13.61606 -0.306144,1.28334 -0.688348,2.95395 -0.849342,3.71248 -0.299859,1.41278 -1.820976,6.425 -2.312794,7.62086 -0.150798,0.36666 -0.771221,1.86666 -1.378718,3.33333 -4.806268,11.60367 -13.381155,19.83333 -20.6653164,19.83333 -1.5258169,0 -2.036073,-0.15141 -2.7547057,-0.81741 -1.42093808,-1.31688 -1.21965437,-2.10035 0.9506409,-3.70021 2.7801991,-2.04946 6.041454,-4.78317 7.0970165,-5.94899 1.6238467,-1.79347 4.6053067,-6.37489 5.8786787,-9.03339 1.769031,-3.69331 2.52499,-5.43564 2.52499,-5.81956 0,-0.19588 0.141207,-0.61661 0.313793,-0.93496 0.172586,-0.31835 0.562978,-1.47881 0.867537,-2.57881 0.304559,-1.1 0.682368,-2.375 0.839576,-2.83333 0.157208,-0.45834 0.449826,-1.65834 0.650263,-2.66667 0.200437,-1.00833 0.502028,-2.50833 0.670202,-3.33333 0.939117,-4.60696 2.036473,-12.28316 2.654459,-18.56841 0.165933,-1.68763 0.387779,-3.56263 0.492991,-4.16667 0.105213,-0.60404 0.338686,-2.67326 0.518829,-4.59826 0.513499,-5.48721 1.278189,-12.59544 1.64953,-15.33333 1.058166,-7.80182 1.970521,-13.68149 2.637908,-17 0.165916,-0.825 0.474351,-2.4 0.68541,-3.5 0.794191,-4.13917 2.783606,-12.2597 4.001435,-16.33333 1.880752,-6.29112 4.238414,-13.08206 4.738973,-13.65 0.153502,-0.17417 0.279094,-0.50072 0.279094,-0.72566 0,-0.53063 1.863539,-4.60449 4.370807,-9.55497 3.03867,-5.99971 8.465602,-14.54418 12.18888,-19.19086 9.638491,-12.0289 18.439963,-20.50633 29.482652,-28.39719 4.078153,-2.91416 10.366533,-6.98132 10.794056,-6.98132 0.09727,0 0.783044,-0.38268 1.523944,-0.85038 1.623028,-1.02458 10.999404,-5.8185 12.639664,-6.46237 0.64166,-0.25188 1.99166,-0.82807 3,-1.28043 7.60155,-3.41018 22.87386,-8.2064 31.66666,-9.94481 1.375,-0.27185 3.175,-0.63857 4,-0.81493 5.92482,-1.26657 16.12551,-2.68341 23.83334,-3.31036 4.77577,-0.38846 23.3575,-0.38022 29.33333,0.013 13.51605,0.88941 30.10219,3.45246 31.52061,4.87087 0.18547,0.18547 -0.34823,2.26775 -1.3565,5.29258 -2.22637,6.67909 -2.25953,6.78947 -2.49977,8.32015 -0.1151,0.73333 -0.28608,1.74583 -0.37996,2.25 -0.26089,1.40111 0.29174,1.09429 1.20078,-0.66667 0.44955,-0.87083 1.34274,-2.40833 1.98487,-3.41666 0.64213,-1.00834 1.45223,-2.35834 1.80021,-3 1.15853,-2.1363 5.11284,-7.13586 7.60345,-9.61331 6.41785,-6.38393 13.97085,-10.633991 22.62631,-12.731791 5.45904,-1.323091 18.97291,-1.621374 25.16667,-0.555489 6.11467,1.052277 6.84154,1.193979 7.92398,1.544762 0.59181,0.191787 2.65102,0.82391 4.57602,1.404717 4.91165,1.481931 10.76014,3.869981 15.83333,6.465061 4.02648,2.05965 5.56314,2.99354 9.51878,5.78495 l 1.51879,1.07177 2.48121,-0.59219 c 2.03504,-0.4857 4.00971,-0.59353 10.98122,-0.59965 8.35641,-0.007 9.36438,0.076 16.66667,1.37845 7.52049,1.34134 10.93058,2.18809 17.16666,4.2626 2.96552,0.98651 4.34229,1.49391 8,2.94834 2.50401,0.99568 10.66439,5.24306 13.83334,7.20008 18.60745,11.49126 29.29207,25.86289 34.84189,46.86503 0.88603,3.35299 1.0891,4.29909 2.03901,9.5 0.70582,3.86452 1.01456,6.16554 1.43119,10.66667 0.19515,2.10833 0.54123,5.18333 0.76906,6.83333 0.31061,2.24946 0.41732,13.04895 0.42654,43.16667 0.007,22.09166 0.12606,41.21666 0.26511,42.5 0.13905,1.28333 0.4004,5.03333 0.58078,8.33333 0.33279,6.08836 0.99883,13.98592 1.61998,19.20876 0.30796,2.58945 0.57478,4.19608 1.7091,10.29124 1.41769,7.6178 3.72009,13.54784 6.87912,17.71779 2.39981,3.16777 4.86949,4.82359 8.64509,5.79621 2.25832,0.58176 2.43009,0.58218 4.46533,0.0111 2.60387,-0.7306 4.18337,-1.70238 5.82188,-3.58188 1.35646,-1.55596 2.93537,-4.69111 3.52769,-7.00472 0.81289,-3.17521 1.61203,-9.29177 1.62799,-12.46063 0.0422,-8.37003 1.25076,-9.81122 8.22778,-9.81122 8.70169,0 15.27964,3.2409 17.68827,8.71488 0.87169,1.98106 1.52389,6.98988 1.31261,10.08082 -0.5225,7.64411 -1.9086,14.58994 -3.86563,19.37096 -2.811,6.86724 -3.19687,7.62599 -6.21718,12.22508 -3.71754,5.66077 -9.24419,11.08812 -14.64047,14.37745 -1.7915,1.09202 -6.8798,3.4529 -8.98848,4.1705 -5.63899,1.91899 -9.44014,2.51877 -16,2.52462 -11.21694,0.01 -19.93281,-2.47161 -29.48717,-8.39572 -7.76315,-4.81348 -15.40537,-12.51008 -21.58171,-21.73526 -2.74781,-4.10422 -3.83458,-5.83119 -5.00277,-7.94985 -0.4701,-0.85258 -1.23532,-2.22515 -1.7005,-3.05015 -0.46517,-0.825 -3.64371,-7.05 -7.06343,-13.83333 C 378.25138,318.78459 377.935,318.19341 374.74021,313 c -7.50313,-12.19701 -14.90489,-19.23523 -24.57354,-23.36662 -6.57149,-2.80798 -16.12539,-3.00945 -24.66667,-0.52016 -7.31529,2.13199 -13.80433,6.18375 -20.33117,12.6948 -9.96433,9.94022 -16.69388,21.70787 -20.98301,36.69198 -0.31487,1.1 -0.69631,2.375 -0.84766,2.83333 -0.26943,0.81597 -0.92481,3.67449 -1.83417,8 -1.019,4.847 -1.19119,5.91873 -2.57067,16 -0.58218,4.25454 -0.57753,23.66592 0.007,28 0.23477,1.74167 0.65515,4.96667 0.93418,7.16667 0.27902,2.2 0.64647,4.62892 0.81655,5.39761 0.17008,0.76868 0.30924,2.58313 0.30924,4.03212 0,4.00326 -1.05594,5.56611 -4.43968,6.57097 -1.43762,0.42693 -5.88801,0.49883 -30.70415,0.49604 l -29.02284,-0.003 -1.66666,-0.78283 c -1.97289,-0.92667 -2.60434,-1.59379 -3.16776,-3.34666 -0.42973,-1.33694 -0.30097,-5.08616 0.30441,-8.864 0.16159,-1.00833 0.53656,-3.40833 0.83328,-5.33333 0.29673,-1.925 0.67773,-4.325 0.84667,-5.33334 0.95169,-5.68002 1.41517,-8.5112 1.88261,-11.5 0.28673,-1.83333 0.64034,-4.08333 0.78579,-5 0.14546,-0.91666 0.4426,-2.86666 0.66032,-4.33333 0.21772,-1.46667 0.53627,-3.41667 0.70789,-4.33333 1.43335,-7.65575 2.46184,-32.23542 1.65578,-39.57142 -0.22734,-2.06906 -0.54612,-4.01222 -0.7084,-4.31816 -0.6562,-1.2371 -3.90536,-0.97122 -12.46726,1.02018 -9.53301,2.21727 -14.01428,2.93806 -25.16667,4.04796 -5.22833,0.52033 -19.93958,0.25645 -29.83333,-0.53513 -8.991,-0.71935 -18.88413,-0.83196 -22.2253,-0.25299 -2.67233,0.46308 -6.76059,1.83812 -9.2747,3.11944 -8.9815,4.57745 -17.7295,15.45326 -23.050196,28.65678 -0.554092,1.375 -1.1321,2.8 -1.284464,3.16667 -1.42595,3.43158 -3.984478,12.57547 -4.849993,17.33333 -1.633232,8.97811 -2.074518,13.24322 -2.432483,23.51039 -0.257475,7.3849 -0.277618,7.53936 -1.205644,9.24445 -0.723061,1.3285 -1.302419,1.91076 -2.477174,2.48961 l -1.533379,0.75555 -30,0.0675 c -27.586679,0.062 -30.110315,0.0218 -31.371318,-0.5 z M 428.5329,324.41667 c -0.44263,-2.17281 -1.15625,-6.80252 -1.83682,-11.91667 -0.19517,-1.46667 -0.50234,-3.64167 -0.68259,-4.83333 C 425.83324,306.475 425.4549,303.025 425.17274,300 c -0.28216,-3.025 -0.66887,-7 -0.85936,-8.83333 -0.72271,-6.95579 -1.47191,-23.67709 -2.15811,-48.16667 -0.50475,-18.01381 -0.58093,-19.74565 -1.17303,-26.66667 -0.39965,-4.67162 -0.79943,-7.65933 -1.49418,-11.16666 -0.29052,-1.46667 -0.67219,-3.49167 -0.84815,-4.5 -0.17596,-1.00834 -0.45153,-2.20834 -0.61238,-2.66667 -0.16085,-0.45833 -0.54431,-1.73333 -0.85212,-2.83333 -0.30782,-1.1 -0.68879,-2.3 -0.84659,-2.66667 -0.15781,-0.36667 -0.39201,-1.04167 -0.52046,-1.5 -0.12844,-0.45833 -0.58787,-1.61122 -1.02095,-2.56197 C 414.35434,187.48727 414,186.63795 414,186.55064 c 0,-0.35179 -2.87642,-5.16005 -4.03803,-6.75002 -1.85244,-2.53555 -4.81955,-5.0271 -7.62864,-6.40595 -2.30032,-1.12911 -2.77235,-1.23622 -5.90991,-1.34104 -3.62553,-0.12113 -5.27878,0.26205 -7.75675,1.79781 -1.40001,0.86768 -4.00135,3.50524 -5.20699,5.2795 -2.64137,3.88713 -5.21523,10.75215 -6.63706,17.70239 -1.21042,5.91682 -1.2533,6.15716 -2.34903,13.16667 -1.1803,7.5504 -1.922,12.92858 -2.48239,18 -0.29002,2.62462 -0.5102,4.20679 -1.32205,9.5 -0.16872,1.1 -0.39292,3.05 -0.49824,4.33333 -0.10532,1.28334 -0.33028,3.30834 -0.4999,4.5 -0.16962,1.19167 -0.54787,4.11667 -0.84056,6.5 -0.29269,2.38334 -0.59601,4.78334 -0.67406,5.33334 -0.22979,1.61947 -1.16587,9.82971 -1.36816,12 -0.13926,1.4941 -0.0295,2.41751 0.43381,3.65059 0.89447,2.38042 1.81578,2.81145 6.87331,3.21561 4.9145,0.39273 7.9316,0.0378 9.11287,-1.0719 0.79544,-0.74728 1.56239,-2.98945 1.92499,-5.62764 0.11339,-0.825 0.43152,-2.85 0.70694,-4.5 0.4488,-2.68858 0.95905,-6.30797 1.80922,-12.83333 1.00442,-7.70935 1.41378,-8.08859 8.67835,-8.03983 4.04894,0.0272 5.19879,0.14633 6.40605,0.66382 2.70996,1.16162 2.70002,1.11783 2.9971,13.20934 0.5122,20.84764 1.09569,27.762 3.08019,36.5 0.93767,4.12865 1.2022,5.16984 1.48204,5.83334 0.15466,0.36666 0.46944,1.26666 0.69952,2 0.23008,0.73333 0.85087,2.2813 1.37952,3.43992 0.52866,1.15862 0.96119,2.17083 0.96119,2.24935 0,0.0785 1.05298,1.85246 2.33994,3.94209 3.2461,5.27065 6.94493,9.42738 10.30866,11.58482 1.9609,1.25769 2.80256,1.26885 2.55097,0.0338 z m -35.13422,-93.38242 c -1.91201,-0.6604 -3.47199,-1.94424 -4.24484,-3.49345 -0.55195,-1.1064 -0.66342,-5.40209 -0.18209,-7.01713 0.16779,-0.56302 0.55174,-2.67367 0.85323,-4.69034 1.48357,-9.92387 3.05984,-16.09272 5.02521,-19.66666 1.41545,-2.57393 3.8728,-3.45735 5.50592,-1.97939 1.40634,1.27272 2.68675,4.81323 3.609,9.97939 0.64421,3.60864 1.0817,15.80217 0.725,20.20671 -0.30197,3.72875 -0.4092,4.16876 -1.27731,5.24134 -0.52121,0.64398 -1.46482,1.3577 -2.0969,1.58605 -1.74902,0.63186 -5.85579,0.54549 -7.91722,-0.16652 z M 195.58692,296.4869 c 4.21282,-0.66583 7.27661,-1.82473 10.59471,-4.0075 2.94603,-1.93802 4.87321,-3.8473 7.21302,-7.14607 1.53279,-2.16099 4.27202,-7.27357 4.27202,-7.97343 0,-0.20292 0.1367,-0.62941 0.30378,-0.94776 1.0748,-2.04788 2.6292,-8.65024 3.39306,-14.41214 1.2157,-9.17023 1.59782,-18.92131 1.60015,-40.83333 0.004,-36.44306 -1.29591,-61.51572 -3.64614,-70.33334 -0.19546,-0.73333 -0.49954,-1.93333 -0.67574,-2.66666 -0.1762,-0.73334 -0.45182,-1.63334 -0.61248,-2 -0.16066,-0.36667 -0.55522,-1.41667 -0.87679,-2.33334 -2.49533,-7.11317 -7.53817,-13.15469 -13.81918,-16.55588 -7.23731,-3.91905 -16.75944,-3.91921 -24,-4.2e-4 -5.51442,2.98457 -9.98761,8.87596 -12.57081,16.5563 -2.32652,6.91723 -2.67523,9.03496 -4.08905,24.83334 -0.61491,6.87111 -0.76124,25.41733 -0.36558,46.33333 0.21329,11.275 0.44843,21.625 0.52253,23 0.0741,1.375 0.22557,5.875 0.33658,10 0.20622,7.66249 0.85583,17.08493 1.5032,21.80353 0.43354,3.15997 2.52042,9.56805 4.10768,12.61324 1.54138,2.95717 4.47001,6.79242 6.48266,8.48951 3.22971,2.72333 7.65098,4.69028 12.57279,5.59343 3.17247,0.58214 3.9979,0.58078 7.75359,-0.0128 z m -6.43678,-25.2891 c -2.61279,-1.13806 -4.6143,-5.14982 -6.00246,-12.03113 -1.07642,-5.33594 -1.50157,-11.62773 -1.80193,-26.66667 -0.2888,-14.45973 0.0403,-49.26445 0.49953,-52.83333 0.10616,-0.825 0.33052,-3.75 0.49857,-6.5 0.46082,-7.54104 1.48993,-15.60053 2.44884,-19.1782 1.49719,-5.58596 3.012,-7.63814 5.83857,-7.90974 1.98514,-0.19075 4.0385,0.80649 4.99355,2.42519 1.21316,2.05615 2.31097,5.91287 3.03515,10.66275 1.41115,9.25578 2.97592,48.54629 2.82098,70.83333 -0.14129,20.32332 -1.01958,29.18507 -3.50713,35.386 -2.06694,5.15244 -5.35912,7.32087 -8.82367,5.8118 z M 128.5,295.49287 c 8.6407,-0.84208 15.464,-6.7469 19.25084,-16.65954 1.26786,-3.31883 2.48438,-8.76464 3.23909,-14.5 1.70032,-12.92137 2.48752,-51.48157 1.52432,-74.66666 -0.58301,-14.03377 -0.92821,-19.2728 -1.50447,-22.83334 -0.54352,-3.35825 -1.37126,-7.53196 -1.68573,-8.5 -0.14889,-0.45833 -0.53351,-1.73333 -0.85471,-2.83333 -1.40538,-4.81303 -4.28318,-9.93204 -7.14344,-12.70671 -3.9023,-3.78553 -7.5618,-5.22343 -13.3259,-5.23607 -3.31396,-0.007 -4.18076,0.11288 -6.39753,0.88669 -7.68428,2.68237 -13.62349,8.99194 -17.05586,18.11944 -0.94856,2.52244 -2.13887,7.21093 -2.69198,10.60332 -0.29891,1.83333 -0.69144,4.08333 -0.87228,5 -0.18085,0.91666 -0.48123,3.61666 -0.6675,6 -0.879444,11.25222 -1.090403,19.56463 -1.087057,42.83333 0.0034,23.39149 0.205675,30.8442 1.090367,40.16667 0.30322,3.1952 0.45577,4.08932 1.59241,9.33333 1.27015,5.85994 4.09521,12.57981 6.89725,16.40622 2.79998,3.82359 7.78167,7.26682 11.69218,8.08137 3.68333,0.76722 4.68836,0.92929 5.16667,0.83316 0.275,-0.0553 1.55,-0.20282 2.83333,-0.32788 z m -5.48535,-23.75888 c -2.9385,-1.44709 -5.11739,-6.58342 -6.03822,-14.23399 -1.52584,-12.67714 -1.06765,-63.96847 0.68786,-77 1.73127,-12.85169 4.06691,-17.5 8.79324,-17.5 3.15236,0 5.78795,3.3687 6.95868,8.89429 1.35797,6.40928 1.41712,8.13912 1.41712,41.43904 0,32.88959 -0.0825,35.58856 -1.37511,45 -1.43201,10.42611 -5.60657,15.78269 -10.44357,13.40066 z m -56.468982,19.41692 c 5.149081,-0.82857 8.55484,-2.60285 12.726344,-6.62997 4.311555,-4.16233 7.869217,-11.07305 9.36304,-18.18761 0.924371,-4.40246 1.076572,-5.35489 1.384943,-8.66666 1.491954,-16.0229 1.142792,-43.84685 -0.700652,-55.83334 -0.730748,-4.75149 -2.017751,-10.99695 -2.575876,-12.5 -2.18754,-5.8911 -3.77095,-8.693 -6.409768,-11.34231 -1.292945,-1.29808 -2.973746,-2.57399 -4.167032,-3.16322 -1.795547,-0.88663 -2.389229,-0.99953 -5.807511,-1.10446 -3.49607,-0.10731 -3.994251,-0.0436 -6.090494,0.77883 -8.797454,3.45156 -14.148253,13.72817 -15.966322,30.6645 -1.164262,10.84576 -1.469007,19.1783 -1.469007,40.16666 0,19.20883 0.358532,28.82512 1.389702,37.27366 0.805904,6.60289 1.59492,7.40671 8.276965,8.43224 4.715852,0.72377 6.143264,0.73963 10.045668,0.11168 z m -1.475517,-20.15527 c -1.385294,-0.84461 -2.233919,-2.78221 -2.80236,-6.39844 -0.950299,-6.04547 -0.369368,-50.38327 0.750294,-57.26387 1.194876,-7.3428 1.843703,-8.88858 4.254116,-10.13505 0.912658,-0.47195 1.275046,-0.49428 2.425896,-0.14948 4.501899,1.3488 5.81319,9.0389 5.78925,33.9512 -0.02042,21.24919 -0.931138,31.09689 -3.36012,36.33333 -1.076157,2.32 -2.266263,3.58114 -3.774945,4.00025 -1.658231,0.46066 -2.036098,0.42175 -3.282131,-0.33794 z m 183.678259,20.21863 c 3.71341,-0.48974 4.5697,-1.02859 5.28197,-3.32388 0.34126,-1.09971 0.45576,-10.57188 0.54769,-45.30706 0.0901,-34.04794 0.20676,-43.91666 0.51914,-43.91666 0.22161,0 0.66678,0.8625 0.98928,1.91666 0.55957,1.82911 2.34717,8.13434 2.90599,10.25 0.14527,0.55 0.74414,2.65 1.33081,4.66667 0.58668,2.01667 1.26947,4.49602 1.51732,5.50968 0.24784,1.01365 0.66875,2.51365 0.93536,3.33333 0.69857,2.14771 2.58311,8.74719 3.94748,13.82366 0.19709,0.73333 0.54654,2.00833 0.77655,2.83333 0.23001,0.825 0.57946,2.1 0.77655,2.83333 0.43547,1.62027 1.31279,4.79934 1.88577,6.83334 0.65711,2.33263 1.07266,3.86392 2.17101,8 0.55988,2.10833 1.15993,4.35833 1.33344,5 0.17351,0.64166 0.53609,1.99166 0.80573,3 1.36336,5.09846 1.64174,5.96671 2.44175,7.61576 0.5759,1.1871 1.31189,2.07776 2.20357,2.66667 1.29629,0.85613 1.48399,0.88269 5.90543,0.83572 5.58086,-0.0593 8.70836,-0.83927 10.48064,-2.61383 1.92175,-1.92422 2.5593,-12.74057 3.25196,-55.17099 0.51065,-31.28118 0.5307,-65.84789 0.0405,-69.87704 -0.4284,-3.52147 -1.19648,-5.32583 -2.69027,-6.31999 -1.22199,-0.81327 -2.73636,-1.02751 -9.4733,-1.34019 -3.98064,-0.18475 -4.92174,-0.14121 -5.16667,0.239 -0.17023,0.26426 -0.3714,17.25229 -0.46614,39.36502 -0.11895,27.76308 -0.27218,39.00562 -0.53521,39.26855 -0.45256,0.45239 -0.78598,-0.37611 -1.74472,-4.33535 -0.37735,-1.55833 -0.93066,-3.65833 -1.22957,-4.66667 -0.29892,-1.00833 -0.66397,-2.35833 -0.81124,-3 -0.14727,-0.64166 -0.52232,-2.06666 -0.83345,-3.16666 -0.31112,-1.1 -0.76628,-2.75 -1.01145,-3.66667 -0.24518,-0.91667 -0.82683,-3.09167 -1.29257,-4.83333 -0.46574,-1.74167 -1.24256,-4.59167 -1.72625,-6.33334 -0.4837,-1.74166 -1.07959,-3.99166 -1.32419,-5 -0.24461,-1.00833 -0.84555,-3.25833 -1.33543,-5 -0.48988,-1.74166 -1.08814,-3.91666 -1.32948,-4.83333 -0.24133,-0.91667 -0.83742,-3.09167 -1.32464,-4.83333 -0.48721,-1.74167 -1.08721,-3.91667 -1.33333,-4.83334 -0.24612,-0.91666 -0.84411,-3.09166 -1.32887,-4.83333 -0.48476,-1.74167 -1.02556,-3.76667 -1.20178,-4.5 -0.17622,-0.73333 -0.45143,-1.70833 -0.61157,-2.16667 C 261.8661,154.875 261.48617,153.6 261.18196,152.5 c -0.30421,-1.1 -0.76031,-2.75 -1.01355,-3.66667 -0.84124,-3.04505 -2.21393,-7.65733 -2.48014,-8.33333 -1.3269,-3.36948 -2.43858,-4.8557 -4.29902,-5.74737 -0.99159,-0.47525 -2.10429,-0.58359 -5.88925,-0.57342 -5.54014,0.0149 -7.64985,0.63231 -9.62282,2.81615 -1.29006,1.42794 -1.61918,2.44178 -2.16572,6.67131 -0.79722,6.1695 -1.6057,53.91251 -1.94312,114.74784 -0.14113,25.44362 -0.10295,28.40962 0.38459,29.87747 0.59731,1.79833 1.18174,2.44624 2.6804,2.97154 1.39784,0.48996 8.03449,0.46253 11.91508,-0.0493 z M 338.5,270.70156 c 2.28847,-0.33471 5.96346,-1.65912 8.16317,-2.94189 7.16706,-4.17951 11.8817,-13.23255 13.6755,-26.25967 0.17671,-1.28333 0.40997,-2.747 0.51836,-3.25259 0.37107,-1.73085 0.86909,-10.07915 1.0289,-17.24741 0.13404,-6.01262 0.0757,-7.36602 -0.36253,-8.40464 -0.28726,-0.68089 -0.78505,-1.37344 -1.10618,-1.53901 -1.48376,-0.76497 -22.82422,-1.7305 -24.0265,-1.08706 -1.20213,0.64336 -1.47006,2.40072 -1.51488,9.93593 -0.0424,7.13255 -0.0408,7.14919 0.74442,7.78797 0.62636,0.50952 1.31829,0.64014 3.39103,0.64014 2.43722,0 2.6669,0.0628 3.58415,0.98005 1.15734,1.15735 1.43674,2.68591 1.42355,7.78811 -0.0243,9.41503 -2.96402,14.23184 -8.68566,14.23184 -2.14195,0 -3.82599,-0.70186 -5.43765,-2.26627 -1.66978,-1.62082 -2.52059,-3.03243 -3.10933,-5.15882 -2.33449,-8.4316 -2.32192,-32.61782 0.0264,-50.74157 1.22607,-9.46264 1.91113,-12.40084 3.76343,-16.14129 2.37997,-4.80602 6.72843,-6.07168 9.91441,-2.8857 1.97087,1.97088 2.95925,5.59083 3.50443,12.83508 0.19232,2.55558 0.47632,4.30509 0.74167,4.56885 0.63754,0.63371 16.03249,1.06294 16.75053,0.46702 C 361.90136,191.6669 362,190.738 362,187.18145 c 0,-2.42198 -0.1401,-5.21611 -0.31133,-6.20919 -0.17123,-0.99308 -0.46898,-2.78565 -0.66165,-3.98349 -0.73824,-4.58948 -2.70036,-9.90013 -5.10684,-13.8221 -1.48457,-2.41949 -6.09916,-6.83418 -8.2607,-7.90286 -3.71939,-1.83889 -6.78921,-2.59714 -10.51468,-2.59714 -10.00783,0 -16.82189,4.56843 -21.87611,14.66666 -1.78577,3.56793 -3.02749,7.70489 -4.60236,15.33334 -0.29552,1.43148 -0.83557,5.56766 -1.67561,12.83333 -0.9525,8.2383 -0.75194,33.5354 0.34223,43.16667 0.64727,5.69755 2.4153,14.19269 3.09534,14.87274 0.13111,0.1311 0.23838,0.4639 0.23838,0.73956 0,0.80505 2.01125,5.03584 3.512,7.3877 3.27756,5.13634 7.54369,7.9585 13.82541,9.14589 2.4911,0.47087 4.71632,0.4418 8.49592,-0.111 z M 108.58364,416.39004 c -3.80989,-1.34365 -4.51239,-3.08453 -4.9325,-12.22337 -1.13672,-24.72742 -1.12907,-33.96683 0.0323,-39 1.18886,-5.1523 1.36846,-5.69475 3.00262,-9.06888 1.77586,-3.66671 3.40876,-6.16792 5.90168,-9.03991 0.86841,-1.00047 1.65393,-1.91899 1.74559,-2.04118 0.13557,-0.18069 3.57181,-3.04513 5.23822,-4.36657 0.96857,-0.76806 5.46838,-2.94175 7.77711,-3.75683 2.6737,-0.94394 4.4919,-1.388 7.98467,-1.9501 2.46996,-0.39749 11.71901,-0.17428 14,0.33788 5.30197,1.19045 6.65545,1.5485 7.9512,2.10338 1.15496,0.49459 1.40096,0.73992 1.2051,1.20183 -0.97397,2.29696 -1.84823,5.45218 -2.79311,10.08038 -1.71487,8.39968 -1.23957,21.29319 1.15507,31.33333 0.28422,1.19167 0.64771,2.76667 0.80775,3.5 0.42685,1.95585 3.67919,11.61322 4.03566,11.98333 0.16775,0.17417 0.305,0.5265 0.305,0.78296 0,0.25646 0.20953,0.93896 0.46562,1.51667 5.51681,12.44506 5.52101,17.03993 0.0171,18.7095 -1.40734,0.42691 -5.36672,0.49706 -26.9827,0.4781 -22.80564,-0.02 -25.49128,-0.0779 -26.91636,-0.58052 z m 197.90257,-0.0166 c -2.9621,-1.3455 -4.14749,-3.75083 -7.98699,-16.20678 -0.5086,-1.65 -2.00817,-6.3 -3.33236,-10.33334 -2.45431,-7.47549 -3.49352,-10.82753 -4.18531,-13.5 -0.21356,-0.825 -0.51156,-1.8 -0.66222,-2.16666 -0.34402,-0.83727 -0.96547,-4.23654 -1.37112,-7.5 -0.56268,-4.52676 -0.24339,-13.09938 0.69525,-18.66667 0.76817,-4.55621 3.58877,-14.56539 5.02545,-17.83333 0.1612,-0.36667 0.68877,-1.56667 1.17238,-2.66667 3.74647,-8.52153 8.7147,-16.27554 14.81024,-23.1146 2.21181,-2.4816 6.16032,-6.05207 6.69286,-6.05207 0.35041,0 1.00033,1.44205 3.48077,7.72315 1.03752,2.62727 2.02472,5.07685 2.19378,5.44352 0.16907,0.36667 1.36269,3.44167 2.65251,6.83333 1.28982,3.39167 2.47625,6.46667 2.63653,6.83334 0.16027,0.36666 0.47905,1.19166 0.70838,1.83333 0.22934,0.64167 0.61461,1.61667 0.85617,2.16667 0.24155,0.55 1.12554,2.8 1.96442,5 0.83887,2.2 1.72971,4.45 1.97963,5 0.67905,1.4944 7.51675,18.76292 7.51675,18.98347 0,0.10475 0.29028,0.82632 0.64507,1.60349 0.35479,0.77717 1.33669,3.13804 2.182,5.24637 0.84531,2.10833 1.66473,4.13333 1.82094,4.5 0.15621,0.36667 0.53446,1.26667 0.84055,2 0.30609,0.73333 0.6882,1.63333 0.84912,2 0.97835,2.22919 1.72577,4.02887 2.83791,6.83333 0.69068,1.74167 1.83372,4.41305 2.5401,5.9364 0.70637,1.52336 1.28431,2.82698 1.28431,2.89694 0,0.07 0.6,1.41996 1.33334,3 C 356.4,393.7467 357,395.09462 357,395.16205 c 0,0.0674 0.50541,1.22104 1.12314,2.5636 1.74673,3.79627 2.72529,5.96325 3.51075,7.77434 0.39756,0.91667 0.87398,1.9374 1.05872,2.2683 0.18474,0.33089 0.42344,1.53917 0.53045,2.68506 0.28849,3.08943 -0.82456,4.83964 -3.81314,5.99592 -1.27894,0.49482 -3.96868,0.54998 -26.5,0.5434 -23.60823,-0.007 -25.15547,-0.0432 -26.42371,-0.61923 z"
       id="path1" />
  </g>
</svg>
